<svg width="768" height="512" viewBox="0 0 768 512" fill="none" xmlns="http://www.w3.org/2000/svg">
<path d="M381.436 424.965L214.329 87.6543L170.746 171.982L294.788 424.965H381.436Z" fill="white"/>
<path d="M40 424.965H154.5L180.288 356.884L127.164 256.309L40 424.965Z" fill="white"/>
<path d="M553.703 82.4961C649.412 82.4962 727 160.084 727 255.793C727 351.502 649.412 429.09 553.703 429.09C457.994 429.09 380.406 351.502 380.406 255.793C380.406 160.084 457.994 82.4961 553.703 82.4961ZM553.703 150.576C495.594 150.576 448.486 197.684 448.486 255.793C448.487 313.902 495.594 361.009 553.703 361.009C611.812 361.009 658.919 313.902 658.919 255.793C658.919 197.684 611.812 150.576 553.703 150.576Z" fill="white"/>
</svg>
