<svg width="1024" height="512" viewBox="0 0 1024 512" fill="none" xmlns="http://www.w3.org/2000/svg">
<path d="M707.118 86.8262C566.347 86.8262 452.236 200.998 452.236 341.845V418.351H528.701V367.347C528.701 346.219 545.816 329.094 566.933 329.094C577.485 329.094 587.043 333.378 593.963 340.302C600.883 347.226 605.165 356.789 605.165 367.347V418.351H681.63V392.849C681.63 336.515 727.279 290.841 783.583 290.841C839.886 290.841 885.535 336.515 885.535 392.849V418.351H962V341.845C962 200.998 847.889 86.8262 707.118 86.8262ZM566.933 290.841C545.816 290.841 528.701 273.717 528.701 252.588C528.701 231.46 545.816 214.336 566.933 214.336C588.05 214.336 605.165 231.46 605.165 252.588C605.165 273.717 588.05 290.841 566.933 290.841Z" fill="white"/>
<path d="M218.332 218.075C200.57 209.003 180.26 204.467 157.392 204.467C122.252 204.467 97.4679 213.664 83.0303 232.067C73.958 243.822 68.8514 258.83 67.7018 277.108H120.407C121.682 269.061 124.239 262.671 128.071 257.947C133.436 251.558 142.571 248.367 155.476 248.367C166.972 248.367 175.697 249.998 181.641 253.26C187.577 256.513 190.553 262.43 190.553 270.986C190.553 278.017 186.65 283.186 178.861 286.51C174.521 288.426 167.293 290.03 157.205 291.305L138.614 293.604C117.529 296.287 101.558 300.76 90.7035 307.017C70.9012 318.513 61 337.103 61 362.788C61 382.59 67.1671 397.892 79.4923 408.684C91.8175 419.476 107.44 424.877 126.351 424.877C141.172 424.877 154.46 421.491 166.215 414.717C176.053 408.969 184.734 402.009 192.282 393.828V418.362H244.987V269.453C244.987 244.285 236.102 227.166 218.35 218.093L218.332 218.075ZM190.357 337.094C189.974 355.364 184.832 367.948 174.931 374.845C165.029 381.743 154.201 385.192 142.446 385.192C135.032 385.192 128.776 383.08 123.669 378.865C118.429 374.774 115.809 368.072 115.809 358.742C115.809 348.27 120.024 340.534 128.455 335.553C133.436 332.612 141.68 330.125 153.176 328.075L165.439 325.776C171.571 324.627 176.392 323.379 179.903 322.042C183.415 320.705 186.899 318.95 190.348 316.775V337.085L190.357 337.094Z" fill="white"/>
<path d="M368.401 259.855C346.425 259.855 331.666 267.011 324.127 281.323C319.912 289.371 317.799 301.767 317.799 318.504V418.354H262.795V209.449H314.921V245.863C323.352 231.942 330.704 222.415 336.96 217.309C347.182 208.753 360.47 204.467 376.823 204.467C377.848 204.467 378.704 204.502 379.408 204.565C380.112 204.627 381.671 204.725 384.104 204.85V260.808C380.655 260.425 377.59 260.166 374.907 260.042C372.225 259.917 370.05 259.846 368.393 259.846L368.401 259.855Z" fill="white"/>
<path d="M384.113 418.362C398.878 418.362 410.849 406.393 410.849 391.626C410.849 376.86 398.878 364.891 384.113 364.891C369.347 364.891 357.377 376.86 357.377 391.626C357.377 406.393 369.347 418.362 384.113 418.362Z" fill="white"/>
</svg>
