<svg width="1536" height="512" viewBox="0 0 1536 512" fill="none" xmlns="http://www.w3.org/2000/svg">
<path d="M633.766 307.031C633.012 305.578 632.42 303.909 631.882 301.972C631.344 300.088 630.914 298.043 630.591 295.944C628.922 297.774 626.985 299.496 624.778 301.111C622.572 302.725 620.15 304.124 617.405 305.416C614.768 306.6 611.862 307.515 608.633 308.161C605.404 308.914 601.96 309.237 598.193 309.237C592.111 309.237 586.514 308.376 581.401 306.6C576.343 304.824 571.983 302.402 568.324 299.227C564.664 296.106 561.812 292.338 559.767 288.033C557.722 283.62 556.699 278.884 556.699 273.771C556.699 261.232 561.328 251.599 570.638 244.818C580.002 237.929 593.941 234.485 612.454 234.485H629.46V227.435C629.46 221.73 627.577 217.209 623.864 213.926C620.15 210.536 614.768 208.867 607.718 208.867C601.475 208.867 596.955 210.213 594.102 212.904C591.25 215.541 589.797 219.093 589.797 223.56H559.282C559.282 218.501 560.359 213.711 562.565 209.19C564.826 204.67 568.109 200.687 572.36 197.243C576.666 193.799 581.886 191.108 588.075 189.116C594.318 187.071 601.368 186.049 609.387 186.049C616.544 186.049 623.218 186.91 629.353 188.686C635.596 190.462 640.977 193.045 645.498 196.489C650.019 199.934 653.571 204.293 656.154 209.567C658.737 214.787 659.975 220.815 659.975 227.704V278.615C659.975 284.965 660.352 290.24 661.159 294.437C661.966 298.635 663.15 302.187 664.657 305.201V307.084H633.766V307.031ZM604.651 285.611C607.718 285.611 610.571 285.234 613.208 284.535C615.845 283.781 618.213 282.867 620.365 281.683C622.464 280.499 624.294 279.207 625.855 277.754C627.415 276.193 628.599 274.686 629.46 273.126V252.675H613.853C609.117 252.675 605.027 253.159 601.691 254.128C598.3 254.989 595.555 256.281 593.457 257.949C591.358 259.564 589.743 261.555 588.721 263.869C587.698 266.129 587.16 268.605 587.16 271.35C587.16 275.44 588.613 278.83 591.465 281.575C594.425 284.266 598.838 285.611 604.651 285.611Z" fill="white"/>
<path d="M779.875 186.049C784.504 186.049 788.755 186.372 792.63 187.018C796.559 187.61 799.788 188.255 802.156 189.009L797.635 219.416C793.599 218.447 789.455 217.747 785.257 217.317C781.059 216.779 777.077 216.563 773.31 216.563C764.753 216.563 757.864 218.232 752.697 221.515C747.585 224.797 743.71 229.533 741.181 235.669V307.031H710.666V188.255H739.082L740.535 207.684C745.378 200.956 751.137 195.682 757.864 191.861C764.537 187.986 771.91 186.049 779.875 186.049Z" fill="white"/>
<path d="M905.594 269.787L915.927 188.199H943.912L922.601 306.975H895.799L880.192 231.469L865.177 306.975H838.376L817.064 188.199H844.942L855.275 270.11L870.182 188.199H890.579L905.594 269.787Z" fill="white"/>
<path d="M1022.27 309.23C1013.12 309.23 1004.83 307.723 997.353 304.71C989.873 301.696 983.468 297.66 978.14 292.547C972.813 287.327 968.669 281.299 965.762 274.303C962.91 267.253 961.457 259.772 961.457 251.807V247.394C961.457 238.299 962.91 230.065 965.762 222.584C968.615 215.05 972.597 208.592 977.71 203.156C982.823 197.721 988.904 193.523 995.954 190.509C1003 187.495 1010.65 185.988 1018.88 185.988C1027.44 185.988 1035.08 187.441 1041.7 190.294C1048.43 193.092 1054.08 197.021 1058.71 202.134C1063.39 207.246 1066.94 213.435 1069.36 220.701C1071.78 227.858 1072.97 235.823 1072.97 244.542V257.512H992.402C992.994 261.548 994.178 265.208 995.9 268.598C997.73 271.881 1000.04 274.733 1002.79 277.155C1005.59 279.577 1008.76 281.461 1012.31 282.752C1015.92 284.044 1019.8 284.743 1024.05 284.743C1027.06 284.743 1030.02 284.474 1032.93 283.882C1035.94 283.29 1038.79 282.429 1041.48 281.353C1044.17 280.169 1046.7 278.77 1049.07 277.048C1051.44 275.379 1053.48 273.388 1055.21 271.128L1070.49 287.596C1068.61 290.287 1066.08 292.978 1063.01 295.615C1060 298.198 1056.44 300.458 1052.25 302.557C1048.16 304.548 1043.58 306.163 1038.52 307.401C1033.57 308.585 1028.14 309.23 1022.27 309.23ZM1018.66 210.744C1015.22 210.744 1012.1 211.39 1009.25 212.628C1006.39 213.812 1003.87 215.534 1001.66 217.794C999.56 220.055 997.73 222.746 996.277 225.921C994.824 229.042 993.694 232.594 992.994 236.469H1043.04V234.047C1042.88 230.818 1042.29 227.805 1041.16 224.952C1040.08 222.1 1038.47 219.624 1036.42 217.579C1034.38 215.48 1031.85 213.812 1028.84 212.628C1025.93 211.39 1022.54 210.744 1018.66 210.744Z" fill="white"/>
<path d="M1173.88 307.031C1173.12 305.578 1172.53 303.909 1171.99 301.972C1171.51 300.088 1171.02 298.043 1170.7 295.944C1169.03 297.774 1167.1 299.496 1164.89 301.111C1162.68 302.725 1160.26 304.124 1157.52 305.416C1154.88 306.6 1151.97 307.515 1148.74 308.161C1145.52 308.914 1142.07 309.237 1138.3 309.237C1132.22 309.237 1126.63 308.376 1121.51 306.6C1116.45 304.824 1112.09 302.402 1108.44 299.227C1104.78 296.106 1101.92 292.338 1099.88 288.033C1097.83 283.62 1096.81 278.884 1096.81 273.771C1096.81 261.232 1101.44 251.599 1110.75 244.818C1120.11 237.929 1134.05 234.485 1152.57 234.485H1169.57V227.435C1169.57 221.73 1167.69 217.209 1163.97 213.926C1160.26 210.536 1154.88 208.867 1147.83 208.867C1141.59 208.867 1137.07 210.213 1134.21 212.904C1131.36 215.541 1129.91 219.093 1129.91 223.56H1099.45C1099.45 218.501 1100.52 213.711 1102.73 209.19C1104.99 204.67 1108.27 200.687 1112.53 197.243C1116.83 193.799 1122.05 191.108 1128.24 189.116C1134.48 187.071 1141.59 186.049 1149.55 186.049C1156.71 186.049 1163.38 186.91 1169.52 188.686C1175.71 190.462 1181.09 193.045 1185.66 196.489C1190.24 199.934 1193.74 204.293 1196.32 209.567C1198.9 214.787 1200.14 220.815 1200.14 227.704V278.615C1200.14 284.965 1200.57 290.24 1201.38 294.437C1202.19 298.635 1203.37 302.187 1204.88 305.201V307.084H1173.88V307.031ZM1144.76 285.611C1147.83 285.611 1150.68 285.234 1153.32 284.535C1155.96 283.781 1158.32 282.867 1160.42 281.683C1162.58 280.499 1164.41 279.207 1165.91 277.754C1167.47 276.193 1168.66 274.686 1169.52 273.126V252.675H1153.91C1149.17 252.675 1145.08 253.159 1141.69 254.128C1138.3 254.989 1135.61 256.281 1133.46 257.949C1131.31 259.564 1129.75 261.555 1128.72 263.869C1127.7 266.129 1127.16 268.605 1127.16 271.35C1127.16 275.44 1128.56 278.83 1131.47 281.575C1134.54 284.266 1138.95 285.611 1144.76 285.611Z" fill="white"/>
<path d="M1285.17 271.779L1286.73 280.336L1288.29 272.102L1314.39 188.254H1346.25L1301.15 307.029H1272.52L1227.21 188.254H1259.07L1285.17 271.779Z" fill="white"/>
<path d="M1427.36 309.23C1418.21 309.23 1409.92 307.723 1402.44 304.71C1394.96 301.696 1388.56 297.66 1383.23 292.547C1377.9 287.327 1373.76 281.299 1370.8 274.303C1367.94 267.253 1366.49 259.772 1366.49 251.807V247.394C1366.49 238.299 1367.94 230.065 1370.8 222.584C1373.65 215.05 1377.63 208.592 1382.74 203.156C1387.86 197.721 1393.94 193.523 1400.99 190.509C1408.04 187.495 1415.68 185.988 1423.91 185.988C1432.47 185.988 1440.06 187.441 1446.73 190.294C1453.46 193.092 1459.16 197.021 1463.74 202.134C1468.42 207.246 1471.97 213.435 1474.39 220.701C1476.82 227.858 1478 235.823 1478 244.542V257.512H1397.44C1398.03 261.548 1399.21 265.208 1400.93 268.598C1402.76 271.881 1405.08 274.733 1407.82 277.155C1410.62 279.577 1413.8 281.461 1417.4 282.752C1421.01 284.044 1424.88 284.743 1429.13 284.743C1432.15 284.743 1435.11 284.474 1438.01 283.882C1441.03 283.29 1443.88 282.429 1446.57 281.353C1449.26 280.169 1451.79 278.77 1454.16 277.048C1456.53 275.379 1458.57 273.388 1460.29 271.128L1475.52 287.596C1473.64 290.287 1471.11 292.978 1468.04 295.615C1465.03 298.198 1461.48 300.458 1457.28 302.557C1453.19 304.548 1448.62 306.163 1443.56 307.401C1438.66 308.585 1433.22 309.23 1427.36 309.23ZM1423.75 210.744C1420.31 210.744 1417.19 211.39 1414.33 212.628C1411.48 213.812 1408.95 215.534 1406.75 217.794C1404.65 220.055 1402.82 222.746 1401.36 225.921C1399.91 229.042 1398.78 232.594 1398.08 236.469H1448.13V234.047C1447.97 230.818 1447.38 227.805 1446.25 224.952C1445.17 222.1 1443.56 219.624 1441.51 217.579C1439.47 215.48 1436.94 213.812 1433.92 212.628C1431.02 211.39 1427.57 210.744 1423.75 210.744Z" fill="white"/>
<path d="M214.632 413.263C301.689 413.263 372.263 342.689 372.263 255.632C372.263 168.574 301.689 98 214.632 98C127.574 98 57 168.574 57 255.632C57 342.689 127.574 413.263 214.632 413.263Z" stroke="white" stroke-width="49.9424"/>
<path d="M244.074 312.57C243.32 311.063 242.674 309.287 242.136 307.296C241.598 305.305 241.168 303.206 240.737 300.999C238.961 302.937 236.97 304.713 234.656 306.381C232.341 308.049 229.812 309.556 226.96 310.848C224.215 312.086 221.147 313.054 217.757 313.7C214.366 314.454 210.761 314.83 206.832 314.83C200.482 314.83 194.615 313.916 189.287 312.086C184.013 310.256 179.439 307.673 175.618 304.39C171.797 301.107 168.783 297.178 166.684 292.658C164.531 288.083 163.455 283.078 163.455 277.75C163.455 264.673 168.299 254.555 178.04 247.451C187.834 240.239 202.419 236.634 221.793 236.634H239.607V229.261C239.607 223.287 237.669 218.605 233.741 215.16C229.812 211.662 224.215 209.886 216.842 209.886C210.33 209.886 205.594 211.286 202.58 214.138C199.62 216.883 198.114 220.596 198.114 225.278H166.2C166.2 220.004 167.33 214.999 169.644 210.209C172.012 205.473 175.403 201.276 179.869 197.67C184.39 194.064 189.879 191.265 196.284 189.167C202.796 187.014 210.223 185.938 218.564 185.938C226.045 185.938 233.041 186.852 239.445 188.682C245.957 190.512 251.554 193.257 256.344 196.809C261.08 200.414 264.793 204.989 267.484 210.478C270.175 215.914 271.521 222.211 271.521 229.422V282.701C271.521 289.375 271.951 294.864 272.758 299.223C273.62 303.583 274.804 307.35 276.418 310.471V312.409H244.074V312.57ZM213.667 290.182C216.896 290.182 219.856 289.805 222.601 289.052C225.345 288.298 227.821 287.276 230.081 286.092C232.288 284.854 234.225 283.509 235.84 281.948C237.454 280.333 238.692 278.719 239.607 277.104V255.739H223.3C218.349 255.739 214.097 256.223 210.545 257.246C207.047 258.161 204.141 259.506 201.935 261.282C199.728 262.95 198.06 265.049 196.983 267.471C195.907 269.839 195.369 272.422 195.369 275.275C195.369 279.58 196.876 283.132 199.836 285.93C202.957 288.783 207.532 290.182 213.667 290.182Z" fill="white"/>
</svg>
